<mxfile host="app.diagrams.net" agent="Mozilla/5.0 (X11; Linux x86_64) AppleWebKit/537.36 (KHTML, like Gecko) Chrome/126.0.0.0 Safari/537.36" version="24.7.14">
  <diagram name="Page-1" id="zbPNvCMwiaTaAyesqsUR">
    <mxGraphModel dx="2284" dy="773" grid="1" gridSize="10" guides="1" tooltips="1" connect="1" arrows="1" fold="1" page="1" pageScale="1" pageWidth="850" pageHeight="1100" math="0" shadow="0">
      <root>
        <mxCell id="0" />
        <mxCell id="1" parent="0" />
        <mxCell id="Z4C_N_7LSFmqAzPwA0Bm-1" value="" style="sketch=0;outlineConnect=0;fontColor=#232F3E;gradientColor=none;fillColor=#232F3D;strokeColor=none;dashed=0;verticalLabelPosition=bottom;verticalAlign=top;align=center;html=1;fontSize=12;fontStyle=0;aspect=fixed;pointerEvents=1;shape=mxgraph.aws4.globe;" vertex="1" parent="1">
          <mxGeometry y="340" width="78" height="78" as="geometry" />
        </mxCell>
        <mxCell id="Z4C_N_7LSFmqAzPwA0Bm-2" value="" style="sketch=0;points=[[0,0,0],[0.25,0,0],[0.5,0,0],[0.75,0,0],[1,0,0],[0,1,0],[0.25,1,0],[0.5,1,0],[0.75,1,0],[1,1,0],[0,0.25,0],[0,0.5,0],[0,0.75,0],[1,0.25,0],[1,0.5,0],[1,0.75,0]];outlineConnect=0;fontColor=#232F3E;fillColor=#7AA116;strokeColor=#ffffff;dashed=0;verticalLabelPosition=bottom;verticalAlign=top;align=center;html=1;fontSize=12;fontStyle=0;aspect=fixed;shape=mxgraph.aws4.resourceIcon;resIcon=mxgraph.aws4.s3;" vertex="1" parent="1">
          <mxGeometry x="180" y="540" width="78" height="78" as="geometry" />
        </mxCell>
        <mxCell id="Z4C_N_7LSFmqAzPwA0Bm-3" value="" style="endArrow=classic;html=1;rounded=0;entryX=0;entryY=0.25;entryDx=0;entryDy=0;entryPerimeter=0;" edge="1" parent="1" source="Z4C_N_7LSFmqAzPwA0Bm-1" target="Z4C_N_7LSFmqAzPwA0Bm-2">
          <mxGeometry width="50" height="50" relative="1" as="geometry">
            <mxPoint x="90" y="500" as="sourcePoint" />
            <mxPoint x="140" y="450" as="targetPoint" />
          </mxGeometry>
        </mxCell>
        <mxCell id="Z4C_N_7LSFmqAzPwA0Bm-4" value="" style="rounded=1;whiteSpace=wrap;html=1;fillColor=none;" vertex="1" parent="1">
          <mxGeometry x="-10" y="280" width="680" height="380" as="geometry" />
        </mxCell>
        <mxCell id="Z4C_N_7LSFmqAzPwA0Bm-5" value="" style="sketch=0;outlineConnect=0;fontColor=#232F3E;gradientColor=none;fillColor=#232F3D;strokeColor=none;dashed=0;verticalLabelPosition=bottom;verticalAlign=top;align=center;html=1;fontSize=12;fontStyle=0;aspect=fixed;pointerEvents=1;shape=mxgraph.aws4.gear;" vertex="1" parent="1">
          <mxGeometry x="470" y="530" width="78" height="78" as="geometry" />
        </mxCell>
        <mxCell id="Z4C_N_7LSFmqAzPwA0Bm-6" value="" style="sketch=0;points=[[0,0,0],[0.25,0,0],[0.5,0,0],[0.75,0,0],[1,0,0],[0,1,0],[0.25,1,0],[0.5,1,0],[0.75,1,0],[1,1,0],[0,0.25,0],[0,0.5,0],[0,0.75,0],[1,0.25,0],[1,0.5,0],[1,0.75,0]];outlineConnect=0;fontColor=#232F3E;fillColor=#C925D1;strokeColor=#ffffff;dashed=0;verticalLabelPosition=bottom;verticalAlign=top;align=center;html=1;fontSize=12;fontStyle=0;aspect=fixed;shape=mxgraph.aws4.resourceIcon;resIcon=mxgraph.aws4.database;" vertex="1" parent="1">
          <mxGeometry x="320" y="390" width="78" height="78" as="geometry" />
        </mxCell>
        <mxCell id="Z4C_N_7LSFmqAzPwA0Bm-7" value="" style="sketch=0;points=[[0,0,0],[0.25,0,0],[0.5,0,0],[0.75,0,0],[1,0,0],[0,1,0],[0.25,1,0],[0.5,1,0],[0.75,1,0],[1,1,0],[0,0.25,0],[0,0.5,0],[0,0.75,0],[1,0.25,0],[1,0.5,0],[1,0.75,0]];outlineConnect=0;fontColor=#232F3E;fillColor=#C925D1;strokeColor=#ffffff;dashed=0;verticalLabelPosition=bottom;verticalAlign=top;align=center;html=1;fontSize=12;fontStyle=0;aspect=fixed;shape=mxgraph.aws4.resourceIcon;resIcon=mxgraph.aws4.database;" vertex="1" parent="1">
          <mxGeometry x="560" y="390" width="78" height="78" as="geometry" />
        </mxCell>
        <mxCell id="Z4C_N_7LSFmqAzPwA0Bm-8" value="" style="endArrow=classic;html=1;rounded=0;entryX=0;entryY=1;entryDx=0;entryDy=0;entryPerimeter=0;" edge="1" parent="1" target="Z4C_N_7LSFmqAzPwA0Bm-6">
          <mxGeometry width="50" height="50" relative="1" as="geometry">
            <mxPoint x="258" y="540" as="sourcePoint" />
            <mxPoint x="308" y="490" as="targetPoint" />
          </mxGeometry>
        </mxCell>
        <mxCell id="Z4C_N_7LSFmqAzPwA0Bm-9" value="" style="endArrow=classic;html=1;rounded=0;" edge="1" parent="1" target="Z4C_N_7LSFmqAzPwA0Bm-5">
          <mxGeometry width="50" height="50" relative="1" as="geometry">
            <mxPoint x="398" y="466" as="sourcePoint" />
            <mxPoint x="509" y="608" as="targetPoint" />
          </mxGeometry>
        </mxCell>
        <mxCell id="Z4C_N_7LSFmqAzPwA0Bm-10" value="" style="endArrow=classic;html=1;rounded=0;" edge="1" parent="1">
          <mxGeometry width="50" height="50" relative="1" as="geometry">
            <mxPoint x="540" y="540" as="sourcePoint" />
            <mxPoint x="590" y="480" as="targetPoint" />
          </mxGeometry>
        </mxCell>
        <mxCell id="Z4C_N_7LSFmqAzPwA0Bm-11" value="" style="sketch=0;points=[[0,0,0],[0.25,0,0],[0.5,0,0],[0.75,0,0],[1,0,0],[0,1,0],[0.25,1,0],[0.5,1,0],[0.75,1,0],[1,1,0],[0,0.25,0],[0,0.5,0],[0,0.75,0],[1,0.25,0],[1,0.5,0],[1,0.75,0]];outlineConnect=0;fontColor=#232F3E;fillColor=#8C4FFF;strokeColor=#ffffff;dashed=0;verticalLabelPosition=bottom;verticalAlign=top;align=center;html=1;fontSize=12;fontStyle=0;aspect=fixed;shape=mxgraph.aws4.resourceIcon;resIcon=mxgraph.aws4.analytics;" vertex="1" parent="1">
          <mxGeometry x="750" y="430" width="78" height="78" as="geometry" />
        </mxCell>
        <mxCell id="Z4C_N_7LSFmqAzPwA0Bm-12" value="" style="endArrow=classic;html=1;rounded=0;" edge="1" parent="1">
          <mxGeometry width="50" height="50" relative="1" as="geometry">
            <mxPoint x="670" y="473" as="sourcePoint" />
            <mxPoint x="742" y="470" as="targetPoint" />
          </mxGeometry>
        </mxCell>
        <mxCell id="Z4C_N_7LSFmqAzPwA0Bm-14" value="&lt;font style=&quot;font-size: 20px;&quot;&gt;Orchestrated once every day using Apache Airflow&amp;nbsp;&lt;/font&gt;" style="text;strokeColor=none;align=center;fillColor=none;html=1;verticalAlign=middle;whiteSpace=wrap;rounded=0;" vertex="1" parent="1">
          <mxGeometry x="270" y="150" width="280" height="120" as="geometry" />
        </mxCell>
        <mxCell id="Z4C_N_7LSFmqAzPwA0Bm-15" value="" style="endArrow=classic;html=1;rounded=0;entryX=0.47;entryY=-0.016;entryDx=0;entryDy=0;entryPerimeter=0;" edge="1" parent="1" target="Z4C_N_7LSFmqAzPwA0Bm-4">
          <mxGeometry width="50" height="50" relative="1" as="geometry">
            <mxPoint x="374" y="240" as="sourcePoint" />
            <mxPoint x="446" y="307" as="targetPoint" />
          </mxGeometry>
        </mxCell>
        <mxCell id="Z4C_N_7LSFmqAzPwA0Bm-16" value="&lt;font style=&quot;font-size: 20px;&quot;&gt;&lt;font style=&quot;font-size: 20px;&quot;&gt;Scraping&lt;/font&gt;&lt;font style=&quot;font-size: 20px;&quot;&gt;&amp;nbsp;&lt;/font&gt;&lt;/font&gt;" style="text;strokeColor=none;align=center;fillColor=none;html=1;verticalAlign=middle;whiteSpace=wrap;rounded=0;" vertex="1" parent="1">
          <mxGeometry x="78" y="410" width="120" height="70" as="geometry" />
        </mxCell>
        <mxCell id="Z4C_N_7LSFmqAzPwA0Bm-17" value="&lt;font style=&quot;font-size: 20px;&quot;&gt;Transforming with dbt&amp;nbsp;&lt;/font&gt;" style="text;strokeColor=none;align=center;fillColor=none;html=1;verticalAlign=middle;whiteSpace=wrap;rounded=0;" vertex="1" parent="1">
          <mxGeometry x="444" y="612" width="130" height="48" as="geometry" />
        </mxCell>
        <mxCell id="Z4C_N_7LSFmqAzPwA0Bm-18" value="&lt;font style=&quot;font-size: 20px;&quot;&gt;Superset dashboard&lt;/font&gt;" style="text;strokeColor=none;align=center;fillColor=none;html=1;verticalAlign=middle;whiteSpace=wrap;rounded=0;" vertex="1" parent="1">
          <mxGeometry x="714" y="490" width="150" height="100" as="geometry" />
        </mxCell>
        <mxCell id="Z4C_N_7LSFmqAzPwA0Bm-19" style="edgeStyle=orthogonalEdgeStyle;rounded=0;orthogonalLoop=1;jettySize=auto;html=1;exitX=0.75;exitY=0;exitDx=0;exitDy=0;entryX=0.883;entryY=-0.033;entryDx=0;entryDy=0;entryPerimeter=0;" edge="1" parent="1" source="Z4C_N_7LSFmqAzPwA0Bm-18" target="Z4C_N_7LSFmqAzPwA0Bm-18">
          <mxGeometry relative="1" as="geometry" />
        </mxCell>
        <mxCell id="Z4C_N_7LSFmqAzPwA0Bm-20" value="&lt;font style=&quot;font-size: 20px;&quot;&gt;Gold layer&lt;/font&gt;" style="text;strokeColor=none;align=center;fillColor=none;html=1;verticalAlign=middle;whiteSpace=wrap;rounded=0;" vertex="1" parent="1">
          <mxGeometry x="550" y="340" width="100" height="30" as="geometry" />
        </mxCell>
      </root>
    </mxGraphModel>
  </diagram>
</mxfile>
